/* XPM */
static char *result[] = {
/* columns rows colors chars-per-pixel */
"64 64 95 2 ",
"   c #B4C7E7",
".  c #B3C6E6",
"X  c #AABCDA",
"o  c #B1C4E4",
"O  c #8491A9",
"+  c black",
"@  c #707C90",
"#  c #818FA6",
"$  c #6E798D",
"%  c #1A1D22",
"&  c #7C8AA0",
"*  c #020303",
"=  c #48505D",
"-  c #606A7C",
";  c #202329",
":  c #A8BAD8",
">  c #7B889E",
",  c #282D34",
"<  c #8A98B1",
"1  c #424955",
"2  c #6F7B8F",
"3  c #5B6575",
"4  c #1D2026",
"5  c #1F2227",
"6  c #7A879C",
"7  c #687386",
"8  c #A5B6D3",
"9  c #8896AE",
"0  c #78849A",
"q  c #677285",
"w  c #576070",
"e  c #484F5C",
"r  c #454D59",
"t  c #4F5866",
"y  c #596373",
"u  c #657082",
"i  c #8593AB",
"p  c #A9BBD9",
"a  c #ADBFDE",
"s  c #758297",
"d  c #343943",
"f  c #1E2126",
"g  c #717D91",
"h  c #090A0C",
"j  c #090A0B",
"k  c #808EA4",
"l  c #5A6373",
"z  c #020202",
"x  c #2C3139",
"c  c #5E6879",
"v  c #7E8BA2",
"b  c #8695AD",
"n  c #8B99B2",
"m  c #5D6778",
"M  c #2B3038",
"N  c #030304",
"B  c #758196",
"V  c #010101",
"C  c #A6B8D5",
"Z  c #A5B7D4",
"A  c #586272",
"S  c #92A1BB",
"D  c #4E5664",
"F  c #7F8CA3",
"G  c #5D6777",
"H  c #262A30",
"J  c #282C33",
"K  c #2B2F37",
"L  c #1B1E23",
"P  c #3A404B",
"I  c #0A0B0D",
"U  c #AABCDB",
"Y  c #7A879D",
"T  c #99AAC5",
"R  c #AEC0DF",
"E  c #323740",
"W  c #070809",
"Q  c #3D434E",
"!  c #AFC2E1",
"~  c #3C424D",
"^  c #060708",
"/  c #14161A",
"(  c #21252B",
")  c #B2C5E5",
"_  c #697486",
"`  c #5F697A",
"'  c #0E1013",
"]  c #040506",
"[  c #0C0E10",
"{  c #1C1F25",
"}  c #2D3139",
"|  c #5C6676",
" . c #9CADC9",
".. c #B1C3E3",
"X. c white",
/* pixels */
"                                                                                                                                ",
"                                                                                                                                ",
"                                                                                                                                ",
"                                                                                                                                ",
"                                                                                                                                ",
"                                                                                                                                ",
"                                                                                                                                ",
"                                                                                                                                ",
"                                                                                                                                ",
"                                                                                                                                ",
"                                                                                                                                ",
"                                                                                                                                ",
"                                                                                                                                ",
"                                                                                                                                ",
"                                                                                                                                ",
"                                                                                                                                ",
"                                          . X X X X X X X X X X X X X X X X X X X X X X o                                       ",
"                                          O + + + + + + + + + + + + + + + + + + + + + + @                                       ",
"                                          # + + + + + + + + + + + + + + + + + + + + + + $                                       ",
"                                          # + + + % % % % % % % % % % % % % % % % % % % &                                       ",
"                                          # + + *                                                                               ",
"                                          # + + *                                                                               ",
"                                          # + + *                                                                               ",
"                                          # + + *                                                                               ",
"                                          # + + *                                                                               ",
"                                          # + + *                                                                               ",
"                                          # + + + = = = = = = = = = = = = = = = = = = = -                                       ",
"                                          # + + + + + + + + + + + + + + + + + + + + + + ;                                       ",
"                                          # + + + + + + + + + + + + + + + + + + + + + + ;                                       ",
"                                          : > > > > > > > > > , + + , > > > > > > > > > <                                       ",
"                                                              1 + + 1                                                           ",
"                                                              1 + + 1                                                           ",
"                                                              1 + + 1                                                           ",
"                                2 3 3 3 3 3 3 3 3 3 3 3 3 3 3 4 + + 4 3 3 3 3 3 3 3 3 3 3 3 3 3 3 2                             ",
"                                5 + + + + + + + + + + + + + + + + + + + + + + + + + + + + + + + + 5                             ",
"                                5 + + + + + + + + + + + + + + + + + + + + + + + + + + + + + + + + 5                             ",
"                                6 7 7 7 7 7 7 7 7 7 7 7 7 7 7 7 7 7 7 7 7 7 7 7 7 7 7 7 7 7 7 7 7 6                             ",
"                                                                                                                                ",
"                                                      8 9 0 q w e r t y u i p                                                   ",
"                                                a s d * + + + + + + + + + + + f u X                                             ",
"                                              g h + + + + + + + + + + + + + + + + j k                                           ",
"                                            l + + + + z x c @ v b n v @ m M z + + + N B                                         ",
"                                          < V + + V l C                     Z A V + + V S                                       ",
"                                          D + + + F                             v + + + G                                       ",
"                                          H + + ,                                 J + + K                                       ",
"                                          L + + P                                 P + + L                                       ",
"                                          = + + I U                             X I + + =                                       ",
"                                          Y + + + 4 T                         T 4 + + + Y                                       ",
"                                          R E + + + W Q s :             : s Q W + + + E R                                       ",
"                                            ! ~ + + + + + + ^ / ( ( / ^ + + + + + + ~ !                                         ",
"                                              ) _ L + + + + + + + + + + + + + + K $ )                                           ",
"                                                  . 9 ` P % ' ] * * [ { } Q |  .                                                ",
"                                                                ..)                                                             ",
"                                                                                                                                ",
"                                                                                                                                ",
"                                                                                                                                ",
"                                                                                                                                ",
"                                                                                                                                ",
"                                                                                                                                ",
"                                                                                                                                ",
"                                                                                                                                ",
"                                                                                                                                ",
"                                                                                                                                ",
"                                                                                                                                "
};
