/* XPM */
static char *result[] = {
/* columns rows colors chars-per-pixel */
"64 64 34 1 ",
"  c #C5E0B4",
". c #B8D1A8",
"X c #86987A",
"o c #8EA282",
"O c #BAD4AA",
"+ c #8EA181",
"@ c black",
"# c #0A0C09",
"$ c #95AA88",
"% c #10130F",
"& c #363D31",
"* c #C1DBB0",
"= c #A7BE99",
"- c #C2DDB1",
"; c #55614E",
": c #384033",
"> c #21261F",
", c #A3BA95",
"< c #97AC8A",
"1 c #32392E",
"2 c #485242",
"3 c #BFD9AF",
"4 c #121510",
"5 c #0F110E",
"6 c #7C8D71",
"7 c #BDD7AC",
"8 c #708067",
"9 c #BED8AE",
"0 c #050604",
"q c #020202",
"w c #2B3127",
"e c #829477",
"r c #ADC49E",
"t c white",
/* pixels */
"                                                                ",
"                                                                ",
"                                                                ",
"                                                                ",
"                                                                ",
"                                                                ",
"                                                                ",
"                                                                ",
"                                                                ",
"                                                                ",
"                                                                ",
"                                                                ",
"                                                                ",
"                                                                ",
"                                                                ",
"                                                                ",
"                                                                ",
"                     .XXo                oXXO                   ",
"                     +@@#                #@@$                   ",
"                     +@@#                #@@$                   ",
"                     +@@#                #@@$                   ",
"                     +@@#                #@@$                   ",
"                     +@@@@@@@@@@@@@@@@@@@@@@$                   ",
"                     +@@@@@@@@@@@@@@@@@@@@@@$                   ",
"                     +@@@%%%%%%%%%%%%%%%%@@@$                   ",
"                     +@@#                #@@$                   ",
"                     +@@#                #@@$                   ",
"                     +@@#                #@@$                   ",
"                     +@@@&&&&&&&&&&&&&&&&@@@$                   ",
"                     +@@@@@@@@@@@@@@@@@@@@@@$                   ",
"                     o@@@@@@@@@@@@@@@@@@@@@@$                   ",
"                     *======================-                   ",
"                                                                ",
"                                                                ",
"                ;::::::::::::::::::::::::::::::::;              ",
"                >@@@@@@@@@@@@@@@@@@@@@@@@@@@@@@@@>              ",
"                >@@@@@@@@@@@@@@@@@@@@@@@@@@@@@@@@>              ",
"                ,<<<<<<<<<<<<<<1@@1<<<<<<<<<<<<<<,              ",
"                               2@@2                             ",
"                               2@@2                             ",
"                               2@@2                             ",
"                    34555555555@@@@5555555556                   ",
"                    7@@@@@@@@@@@@@@@@@@@@@@@8                   ",
"                    90qqqqqqqqqqqqqqqqqqq@@@8                   ",
"                                         w@@8                   ",
"                                         w@@8                   ",
"                                         w@@8                   ",
"                                         w@@8                   ",
"                                         w@@8                   ",
"                                         w@@8                   ",
"                                         w@@8                   ",
"                                         w@@8                   ",
"                                         w@@8                   ",
"                                         $eer                   ",
"                                                                ",
"                                                                ",
"                                                                ",
"                                                                ",
"                                                                ",
"                                                                ",
"                                                                ",
"                                                                ",
"                                                                ",
"                                                                "
};
