/* XPM */
static char *result[] = {
/* columns rows colors chars-per-pixel */
"64 64 91 1 ",
"  c #F8CBAD",
". c #42362E",
"X c #1A1512",
"o c #AB8C77",
"O c #241E19",
"+ c black",
"@ c #9A7E6B",
"# c #EBC0A4",
"$ c #8E7563",
"% c #937967",
"& c #CCA78E",
"* c #F6C9AB",
"= c #C6A28A",
"- c #EDC2A5",
"; c #A78874",
": c #856D5C",
"> c #A98A76",
", c #635145",
"< c #866D5D",
"1 c #D4AD93",
"2 c #40342C",
"3 c #C7A38B",
"4 c #EFC3A6",
"5 c #0F0C0A",
"6 c #191411",
"7 c #F3C7A9",
"8 c #977C69",
"9 c #A18470",
"0 c #D8B197",
"q c #3B3029",
"w c #020202",
"e c #2E2620",
"r c #352B25",
"t c #BE9C84",
"y c #685548",
"u c #C29F87",
"i c #54453B",
"p c #2A231D",
"a c #F4C7AA",
"s c #1B1612",
"d c #473A32",
"f c #B1907B",
"g c #927866",
"h c #8B7161",
"j c #E0B79C",
"k c #15110E",
"l c #372D26",
"z c #F7CAAC",
"x c #3E322B",
"c c #040303",
"v c #CDA78F",
"b c #D6AF95",
"n c #0A0807",
"m c #1E1815",
"M c #E7BDA1",
"N c #836B5B",
"B c #766152",
"V c #43362E",
"C c #ECC1A4",
"Z c #8F7564",
"A c #6A5649",
"S c #D7B096",
"D c #F5C8AA",
"F c #6A574A",
"G c #211B17",
"H c #E5BBA0",
"J c #483B32",
"K c #120F0C",
"L c #B99881",
"P c #0C0A08",
"I c #CEA88F",
"U c #312822",
"Y c #030302",
"T c #A38571",
"R c #463A31",
"E c #0E0B0A",
"W c #BC9A83",
"Q c #060504",
"! c #BB9982",
"~ c #C9A48C",
"^ c #181310",
"/ c #CBA68D",
"( c #58483D",
") c #010101",
"_ c #A68874",
"` c #DBB399",
"' c #CAA58D",
"] c #B6957F",
"[ c #A48672",
"{ c #DEB69B",
"} c white",
/* pixels */
"                                                                ",
"                                                                ",
"                                                                ",
"                                                                ",
"                                                                ",
"                                                                ",
"                                                                ",
"                                                                ",
"                                                                ",
"                                                                ",
"                                                                ",
"                                                                ",
"                                                                ",
"                                                                ",
"                                                                ",
"                                                                ",
"                                          .XXo                  ",
"                                          O++@                  ",
"                        #$$%              O++@                  ",
"                        &+++*             O++@                  ",
"                        &+++*             O++@                  ",
"                        &+++*             O++@                  ",
"                        &+++*             O++@                  ",
"                        &+++*             O++@                  ",
"                        =+++-             O++@                  ",
"                        ;+++&             O++@                  ",
"                        :+++>             O++@                  ",
"                        ,+++<    *11111111X++@                  ",
"                        2+++,    3+++++++++++@                  ",
"                       45+++67   3+++++++++++@                  ",
"                       8+++++9   0qqqqqqqqw++@                  ",
"                       e+++++r            O++@                  ",
"                      t+++y+++u           O++@                  ",
"                      i++pas++d           O++@                  ",
"                     f+++8 g+++h          O++@                  ",
"                    jk++l* zx++cu         O++@                  ",
"                   z.++cv   bn++mM        O++@                  ",
"                   N+++B     %+++VC       O++@                  ",
"                  Zw++x7      A+++pS      O++@                  ",
"                DF+++GH       DJ+++KL     O++@                  ",
"               CJ+++PI         CU+++YT    O++@                  ",
"               R+++EW           #.++Q!    O++@                  ",
"               ~6+^/             7()_     O++@                  ",
"                `(0               z'      O++@                  ",
"                                          O++@                  ",
"                                          O++@                  ",
"                                          O++@                  ",
"                                          O++@                  ",
"                                          O++@                  ",
"                                          O++@                  ",
"                                          O++@                  ",
"                                          O++@                  ",
"                                          ][[{                  ",
"                                                                ",
"                                                                ",
"                                                                ",
"                                                                ",
"                                                                ",
"                                                                ",
"                                                                ",
"                                                                ",
"                                                                ",
"                                                                ",
"                                                                "
};
